<svg width="130" height="36" viewBox="0 0 130 36" fill="none" xmlns="http://www.w3.org/2000/svg">
<g id="Logo">
<g id="Logo_2">
<path d="M106.168 9C107.11 9 107.526 9.456 107.414 10.368L107.246 11.64C107.134 12.44 106.655 12.84 105.808 12.84H104.083C103.156 12.84 102.749 12.384 102.86 11.472L103.028 10.2C103.108 9.4 103.579 9 104.442 9H106.168Z" fill="#1B62F8"/>
<path d="M106.791 14.376L105.137 26.304H100.799L102.453 14.376H106.791Z" fill="#1B62F8"/>
<path fill-rule="evenodd" clip-rule="evenodd" d="M56.1987 9.96C55.3359 9.688 54.1935 9.552 52.7716 9.552C51.8449 9.552 51.014 9.56 50.2791 9.576C49.5601 9.576 48.8811 9.592 48.242 9.624C47.6189 9.64 46.9798 9.68 46.3247 9.744L44 26.304C44.7509 26.352 45.4859 26.392 46.2049 26.424C46.9239 26.456 47.7147 26.472 48.5775 26.472C49.4403 26.488 50.4628 26.496 51.6452 26.496C52.9872 26.496 54.0897 26.384 54.9525 26.16C55.8152 25.92 56.4783 25.504 56.9416 24.912C57.405 24.304 57.7165 23.448 57.8763 22.344C58.068 21 57.9402 19.936 57.4928 19.152C57.0455 18.352 56.1827 17.896 54.9045 17.784L54.9285 17.64C56.0469 17.544 56.8458 17.208 57.3251 16.632C57.8204 16.056 58.1479 15.192 58.3077 14.04C58.4515 12.872 58.3556 11.968 58.0201 11.328C57.6846 10.672 57.0774 10.216 56.1987 9.96ZM52.6038 12.744C53.2269 12.744 53.6343 12.856 53.8261 13.08C54.0338 13.288 54.0977 13.704 54.0178 14.328C53.89 15.144 53.6743 15.68 53.3707 15.936C53.0831 16.192 52.5638 16.32 51.8129 16.32H49.7998L50.3031 12.744H52.6038ZM49.3923 19.128H51.717C52.4999 19.128 53.0032 19.256 53.2269 19.512C53.4506 19.768 53.5065 20.304 53.3947 21.12C53.2988 21.712 53.163 22.168 52.9872 22.488C52.8275 22.808 52.5718 23.024 52.2203 23.136C51.8688 23.248 51.3975 23.304 50.8063 23.304H48.8172L49.3923 19.128Z" fill="#1B62F8"/>
<path fill-rule="evenodd" clip-rule="evenodd" d="M70.445 14.544C69.5982 14.208 68.3919 14.04 66.8261 14.04C65.4201 14.04 64.2218 14.208 63.2312 14.544C62.2406 14.864 61.4577 15.472 60.8825 16.368C60.3074 17.248 59.9239 18.528 59.7322 20.208C59.5884 21.6 59.6683 22.768 59.9718 23.712C60.2754 24.656 60.8905 25.376 61.8172 25.872C62.7439 26.352 64.062 26.592 65.7716 26.592C66.6663 26.592 67.601 26.52 68.5756 26.376C69.5662 26.232 70.4609 25.984 71.2598 25.632L70.9483 22.944C70.4849 22.992 69.9417 23.04 69.3186 23.088C68.7114 23.12 68.1203 23.152 67.5451 23.184C66.9859 23.2 66.5305 23.208 66.179 23.208C65.492 23.208 64.9887 23.12 64.6692 22.944C64.3496 22.752 64.1819 22.32 64.1659 21.648L67.4492 21.384C69.015 21.272 70.1893 21.016 70.9722 20.616C71.7711 20.2 72.2504 19.448 72.4102 18.36C72.554 17.416 72.4741 16.624 72.1705 15.984C71.8829 15.344 71.3077 14.864 70.445 14.544ZM65.6038 17.16C65.9074 17.016 66.3068 16.944 66.8021 16.944C67.4093 16.928 67.8167 16.984 68.0244 17.112C68.2321 17.24 68.304 17.512 68.2401 17.928C68.1762 18.44 68.0004 18.768 67.7128 18.912C67.4252 19.056 67.0019 19.152 66.4426 19.2L64.4295 19.416C64.5573 18.744 64.7091 18.232 64.8849 17.88C65.0766 17.528 65.3162 17.288 65.6038 17.16Z" fill="#1B62F8"/>
<path d="M79.5311 14.04C80.1382 14.056 80.8013 14.088 81.5202 14.136C82.2392 14.168 82.9342 14.224 83.6053 14.304C84.2763 14.384 84.8435 14.472 85.3069 14.568L84.9474 17.136H82.5987C81.8318 17.12 81.0809 17.112 80.3459 17.112C79.4672 17.112 78.876 17.136 78.5724 17.184C78.2689 17.216 78.1011 17.344 78.0691 17.568C78.0372 17.776 78.1091 17.936 78.2848 18.048C78.4766 18.16 78.8121 18.296 79.2914 18.456L82.0715 19.32C83.0301 19.608 83.7331 20.048 84.1805 20.64C84.6438 21.232 84.8196 22.016 84.7077 22.992C84.5799 24.016 84.2683 24.784 83.773 25.296C83.2778 25.808 82.6067 26.144 81.7599 26.304C80.9131 26.48 79.9145 26.568 78.7642 26.568C77.9333 26.568 77.0546 26.536 76.1279 26.472C75.2172 26.408 74.1707 26.28 72.9883 26.088L73.3718 23.496C73.6115 23.512 73.955 23.52 74.4023 23.52H77.3262C78.189 23.52 78.844 23.504 79.2914 23.472C79.7388 23.44 80.0503 23.384 80.2261 23.304C80.4018 23.208 80.4977 23.08 80.5137 22.92C80.5456 22.712 80.4657 22.56 80.274 22.464C80.0983 22.368 79.7308 22.232 79.1716 22.056L76.4874 21.168C75.4329 20.832 74.7059 20.336 74.3065 19.68C73.923 19.008 73.7952 18.192 73.923 17.232C74.0349 16.528 74.2745 15.944 74.642 15.48C75.0255 15 75.6086 14.64 76.3915 14.4C77.1744 14.16 78.2209 14.04 79.5311 14.04Z" fill="#1B62F8"/>
<path d="M91.2046 16.608L91.1566 14.376H87.7295L86.0758 26.304H90.4376L91.4442 19.056C92.0514 18.592 92.5706 18.264 93.002 18.072C93.4494 17.864 93.8568 17.752 94.2243 17.736C94.5917 17.704 94.8314 17.776 94.9433 17.952C95.0551 18.112 95.0791 18.408 95.0152 18.84L93.9606 26.304H98.3225L99.5687 17.448C99.7285 16.328 99.5048 15.48 98.8976 14.904C98.3065 14.328 97.5156 14.04 96.525 14.04C95.6463 14.04 94.7355 14.272 93.7929 14.736C92.8662 15.184 92.0034 15.808 91.2046 16.608Z" fill="#1B62F8"/>
<path d="M113.454 16.392L114.388 9.504H110.027L107.678 26.304H112.04L112.567 22.632C112.583 22.504 112.591 22.36 112.591 22.2C112.831 22.12 113.078 22.04 113.334 21.96L114.101 21.672L116.186 26.304H120.668L118.463 21.624C118.335 21.336 118.175 21.064 117.983 20.808C117.792 20.536 117.552 20.288 117.264 20.064C118.191 19.44 119.014 18.672 119.733 17.76C120.468 16.848 121.003 15.72 121.339 14.376H116.857C116.617 15.384 116.09 16.328 115.275 17.208C114.46 18.072 113.526 18.768 112.471 19.296C112.711 18.816 112.911 18.344 113.07 17.88C113.23 17.4 113.358 16.904 113.454 16.392Z" fill="#1B62F8"/>
<path d="M127.004 27C128.659 27 130 25.6569 130 24C130 22.3431 128.659 21 127.004 21C125.35 21 124.009 22.3431 124.009 24C124.009 25.6569 125.35 27 127.004 27Z" fill="#1B62F8"/>
</g>
<g id="Logo_3">
<circle id="Ellipse 1" cx="18" cy="17.9999" r="18" fill="#1B62F8"/>
<path id="Ellipse 28" d="M5.27208 30.7278C1.89642 27.3522 1.51746e-07 22.7738 0 17.9999C-1.51746e-07 13.226 1.89642 8.64765 5.27208 5.272C8.64773 1.89634 13.2261 -8.34112e-05 18 -8.39233e-05C22.7739 -8.44355e-05 27.3523 1.89634 30.7279 5.27199L5.27208 30.7278Z" fill="#074EE4"/>
<g id="Intersect">
<path d="M13.5768 0.547303C13.9897 0.442982 14.4083 0.352927 14.832 0.277696C13.4576 2.87122 12.1479 6.86003 12.5862 10.4753C12.805 12.281 13.4575 13.9788 14.7419 15.3757C16.0264 16.7728 17.9768 17.9058 20.8554 18.5226C28.2994 20.1177 31.9332 22.8102 33.2209 25.6716C33.4094 26.0905 33.5458 26.5087 33.6363 26.9229C33.3686 27.3909 33.0805 27.8458 32.7732 28.2863C32.7828 27.568 32.6427 26.8237 32.309 26.082C31.2202 23.6624 27.9887 21.0739 20.6459 19.5004C17.6098 18.8498 15.4586 17.6327 14.0058 16.0526C12.5528 14.4723 11.8322 12.5659 11.5934 10.5956C11.1625 7.04059 12.2922 3.23108 13.5768 0.547303Z" fill="#2F76FF"/>
<path d="M10.4783 1.64192C11.169 1.32379 11.8833 1.04813 12.6179 0.818264C10.5007 2.87613 8.1048 6.10752 7.30175 9.55187C6.87801 11.3693 6.90095 13.2299 7.62347 15.014C8.34564 16.7973 9.78547 18.5505 12.276 20.122C18.7248 24.1909 21.2024 28.0196 21.4168 31.2068C21.5445 33.1049 20.8661 34.702 19.8409 35.9068C19.3469 35.957 18.8469 35.9872 18.3418 35.9966C19.6193 34.912 20.554 33.2786 20.4191 31.2739C20.237 28.5677 18.0966 24.977 11.7424 20.9677C9.11168 19.3078 7.51231 17.4036 6.6966 15.3894C5.88124 13.376 5.86759 11.299 6.32787 9.32481C7.00444 6.42294 8.71165 3.70878 10.4783 1.64192Z" fill="#2F76FF"/>
<path d="M14.943 35.7412C13.4416 33.9334 10.5473 32.163 5.4589 30.9118C5.03264 30.4977 4.62682 30.0627 4.24309 29.6084C4.30082 29.6213 4.35892 29.6341 4.41742 29.6466C11.098 31.0782 14.7098 33.3935 16.3111 35.9216C15.8498 35.8787 15.3935 35.8183 14.943 35.7412Z" fill="#2F76FF"/>
<path d="M17.0284 35.974C17.3501 35.9911 17.6741 35.9998 18.0001 35.9998C18.0456 35.9998 18.0911 35.9996 18.1366 35.9993C18.8615 34.4521 19.0742 32.5679 18.2209 30.6716C16.9332 27.8102 13.2994 25.1177 5.85541 23.5226C3.31728 22.9787 1.50076 22.0336 0.226074 20.86C0.309009 21.3794 0.414165 21.8914 0.540539 22.395C1.8576 23.3244 3.53858 24.0488 5.64588 24.5004C12.9887 26.0739 16.2202 28.6624 17.309 31.082C18.0917 32.8215 17.8092 34.5755 17.0284 35.974Z" fill="#2F76FF"/>
<path d="M33.8827 9.52218C33.8491 9.5149 33.8154 9.50764 33.7816 9.5004C30.7455 8.8498 28.5943 7.63272 27.1415 6.05258C25.8741 4.67416 25.164 3.04752 24.8448 1.34685C25.2319 1.50615 25.6123 1.67856 25.9854 1.86353C26.3243 3.14666 26.9284 4.34337 27.8776 5.37575C29.0384 6.63823 30.743 7.68505 33.185 8.33022C33.4322 8.7177 33.665 9.11526 33.8827 9.52218Z" fill="#2F76FF"/>
<path d="M35.3876 13.3271C35.5285 13.8525 35.6462 14.3875 35.7395 14.9308C33.9606 13.226 30.8265 11.6105 25.6459 10.5004C22.6098 9.8498 20.4586 8.63272 19.0058 7.05258C17.5528 5.47235 16.8322 3.56588 16.5934 1.59564C16.5319 1.08808 16.5022 0.575321 16.5002 0.0613975C16.831 0.0341055 17.1644 0.0157619 17.5001 0.00660706C17.5001 0.500043 17.5274 0.991028 17.5861 1.47531C17.805 3.28099 18.4575 4.97881 19.7419 6.37575C21.0264 7.77278 22.9768 8.90575 25.8554 9.5226C30.2723 10.4691 33.3477 11.8019 35.3876 13.3271Z" fill="#2F76FF"/>
<path d="M15.9477 0.115523C15.5797 0.157288 15.2151 0.210149 14.8542 0.273761C14.2416 2.36574 13.8964 4.69948 14.1671 6.9328C14.406 8.90304 15.1266 10.8095 16.5795 12.3897C18.0323 13.9699 20.1835 15.187 23.2196 15.8376C30.5624 17.411 33.7939 19.9996 34.8827 22.4192C35.0193 22.7226 35.1234 23.0265 35.1981 23.3289C35.3667 22.7842 35.5102 22.2285 35.6271 21.663C34.2073 18.9317 30.5725 16.3905 23.4291 14.8598C20.5505 14.2429 18.6001 13.1099 17.3156 11.7129C16.0312 10.316 15.3788 8.61815 15.1599 6.81247C14.8898 4.58399 15.2838 2.21358 15.9477 0.115523Z" fill="#2F76FF"/>
</g>
<path id="Union" fill-rule="evenodd" clip-rule="evenodd" d="M14.5 12.9998C14.5 11.343 13.1569 9.99983 11.5 9.99983V19.4998C11.5 23.0897 14.4101 25.9998 18 25.9998C21.5899 25.9998 24.5 23.0897 24.5 19.4998C24.5 15.91 21.5899 12.9998 18 12.9998H14.5ZM14.5 15.9998H18C19.933 15.9998 21.5 17.5668 21.5 19.4998C21.5 21.4328 19.933 22.9998 18 22.9998C16.067 22.9998 14.5 21.4328 14.5 19.4998V15.9998Z" fill="white"/>
</g>
</g>
</svg>
